<?xml version="1.0" encoding="UTF-8" standalone="no" ?>
<!DOCTYPE svg PUBLIC "-//W3C//DTD SVG 1.1//EN" "http://www.w3.org/Graphics/SVG/1.1/DTD/svg11.dtd">
<svg xmlns="http://www.w3.org/2000/svg" xmlns:xlink="http://www.w3.org/1999/xlink" version="1.1" width="338" height="56" viewBox="0 0 338 56" xml:space="preserve">
<desc>Created with Fabric.js 4.6.0</desc>
<defs>
</defs>
<g transform="matrix(1 0 0 1 225.02 28)" id="C0KFq-Yurz1XCOnBPoNVL"  >
<path style="stroke: none; stroke-width: 1; stroke-dasharray: none; stroke-linecap: butt; stroke-dashoffset: 0; stroke-linejoin: miter; stroke-miterlimit: 4; fill: rgb(255,255,255); fill-rule: nonzero; opacity: 1;" vector-effect="non-scaling-stroke"  transform=" translate(-223.02, -26)" d="M 242.997 33.9648 L 243.241 35.1244 C 243.241 35.6127 242.987 36.1925 242.478 36.8639 C 241.134 38.6135 238.976 40.6275 236.003 42.9061 C 233.051 45.1643 230.872 46.2934 229.467 46.2934 C 228.062 46.2934 226.963 45.8865 226.169 45.0728 C 225.375 44.2387 224.978 43.2926 224.978 42.2347 C 224.978 40.9734 226.301 38.1862 228.948 33.8732 C 232.918 27.4648 237.988 19.9781 244.157 11.4131 C 242.854 12.7559 239.393 16.3772 233.773 22.277 C 221.333 35.2973 214.064 42.6721 211.967 44.4014 C 211.621 44.6862 211.112 44.8286 210.44 44.8286 C 209.788 44.8286 209.096 44.5642 208.363 44.0352 C 207.63 43.4859 207.264 42.8756 207.264 42.2042 L 207.264 42.0516 C 207.345 41.1972 209.31 37.0164 213.158 29.5094 C 217.006 22.0023 220.233 16.0313 222.84 11.5962 C 218.991 15.8279 215.103 20.5477 211.173 25.7559 C 203.701 35.6432 198.234 44.0657 194.772 51.0235 C 194.467 51.6745 194.09 52 193.642 52 C 193.194 52 192.543 51.8881 191.688 51.6643 C 189.896 51.1761 189 50.3216 189 49.1009 C 189 48.3685 190.497 45.7543 193.49 41.2582 C 196.483 36.7418 199.954 31.8185 203.904 26.4883 C 207.854 21.1377 211.947 15.9906 216.182 11.0469 C 222.025 4.21127 225.782 0.793427 227.451 0.793427 C 227.716 0.793427 227.971 0.864632 228.215 1.00704 C 228.459 1.12911 228.612 1.19014 228.673 1.19014 C 228.734 1.19014 228.795 1.15962 228.856 1.09859 C 229.121 0.773083 229.64 0.610329 230.414 0.610329 C 231.208 0.610329 231.972 0.762911 232.705 1.06808 C 233.458 1.37324 233.835 1.71909 233.835 2.10563 C 233.835 2.34977 232.816 4.29264 230.78 7.93427 C 223.96 20.0188 219.378 28.3192 217.037 32.8357 C 219.277 30.1299 222.473 26.5391 226.627 22.0634 C 230.801 17.5876 235.178 13.1221 239.76 8.66667 C 245.725 2.88889 249.288 0 250.449 0 C 250.917 0 251.508 0.101721 252.22 0.305164 C 253.483 0.671362 254.694 0.85446 255.855 0.85446 C 256.181 0.915493 256.455 1.0579 256.679 1.28169 C 256.924 1.48513 257.046 1.69875 257.046 1.92254 C 257.046 2.14632 256.985 2.32942 256.863 2.47183 C 250.245 11.2606 244.666 19.0117 240.126 25.7254 C 235.586 32.439 232.786 36.9757 231.727 39.3357 C 233.865 38.8881 237.052 36.3349 241.287 31.6761 C 241.47 31.4319 241.602 31.2692 241.684 31.1878 C 241.765 31.1064 241.836 31.025 241.897 30.9437 C 242.244 30.5368 242.508 30.7911 242.691 31.7066 C 242.773 32.2355 242.824 32.6119 242.844 32.8357 C 242.885 33.0391 242.915 33.2629 242.936 33.507 C 242.977 33.7308 242.997 33.8834 242.997 33.9648 Z" stroke-linecap="round" />
</g>
<g transform="matrix(1 0 0 1 260.25 35.29)" id="ATfH7ipF8qD_mqida4Adr"  >
<path style="stroke: none; stroke-width: 1; stroke-dasharray: none; stroke-linecap: butt; stroke-dashoffset: 0; stroke-linejoin: miter; stroke-miterlimit: 4; fill: rgb(255,255,255); fill-rule: nonzero; opacity: 1;" vector-effect="non-scaling-stroke"  transform=" translate(-258.25, -33.29)" d="M 267.824 21.9718 C 268.435 21.9718 269.056 22.2465 269.687 22.7958 C 270.339 23.3451 270.665 24.1894 270.665 25.3286 C 270.665 26.4476 270.268 27.9124 269.474 29.723 C 268.68 31.5133 267.59 33.3443 266.206 35.216 C 264.821 37.0673 263.294 38.8169 261.625 40.4648 C 259.975 42.0923 258.184 43.4351 256.249 44.493 C 254.335 45.5305 252.595 46.0493 251.027 46.0493 C 249.459 46.0493 248.197 45.561 247.24 44.5845 C 246.303 43.5876 245.835 42.2144 245.835 40.4648 C 245.835 38.6948 246.262 36.7418 247.118 34.6056 C 247.993 32.4695 249.113 30.5876 250.477 28.9601 C 251.841 27.3122 253.317 25.8372 254.906 24.5352 C 258.224 21.8701 261.136 20.5376 263.64 20.5376 C 264.76 20.5376 265.605 20.8122 266.175 21.3615 C 266.379 21.5446 266.481 21.7074 266.481 21.8498 L 266.481 22.0329 C 266.766 21.9922 267.214 21.9718 267.824 21.9718 Z M 264.74 26.0305 L 264.526 26.0305 C 263.813 26.0305 263.457 25.5117 263.457 24.4742 C 261.971 24.9624 260.413 25.8169 258.784 27.0376 C 257.155 28.2582 255.7 29.7027 254.417 31.3709 C 251.811 34.7074 250.487 37.525 250.447 39.8239 C 250.447 40.9632 250.864 41.5329 251.699 41.5329 C 252.533 41.5329 253.776 40.9836 255.425 39.885 C 257.074 38.7864 258.703 37.2199 260.311 35.1854 C 261.94 33.151 263.152 31.3912 263.946 29.9061 C 264.76 28.4006 265.167 27.3834 265.167 26.8545 C 265.167 26.3052 265.025 26.0305 264.74 26.0305 Z" stroke-linecap="round" />
</g>
<g transform="matrix(1 0 0 1 286.99 34.29)" id="Nv1_L5kTC0jJUgutLIaZj"  >
<path style="stroke: none; stroke-width: 1; stroke-dasharray: none; stroke-linecap: butt; stroke-dashoffset: 0; stroke-linejoin: miter; stroke-miterlimit: 4; fill: rgb(255,255,255); fill-rule: nonzero; opacity: 1;" vector-effect="non-scaling-stroke"  transform=" translate(-284.99, -32.29)" d="M 297.966 21.7277 C 297.966 23.1315 297.182 25.1862 295.615 27.892 C 294.047 30.5775 292.031 33.3036 289.567 36.0704 C 287.124 38.8372 284.528 41.2379 281.779 43.2723 C 279.031 45.2864 276.883 46.2934 275.335 46.2934 C 274.5 46.2934 273.737 45.9883 273.045 45.3779 C 272.352 44.7676 272.006 43.8013 272.006 42.4789 C 272.006 41.1362 272.637 39.0305 273.9 36.162 C 275.162 33.2934 276.404 30.8725 277.626 28.8991 C 276.547 29.6925 275.885 30.0892 275.641 30.0892 C 275.417 30.0892 275.121 29.8247 274.755 29.2958 C 274.409 28.7668 274.236 28.3599 274.236 28.0751 C 274.236 27.77 274.287 27.5462 274.388 27.4038 C 278.399 22.9484 281.23 20.7207 282.879 20.7207 C 283.571 20.7207 284.151 20.9241 284.62 21.331 C 285.088 21.7379 285.322 22.2261 285.322 22.7958 C 285.322 23.3654 284.63 25.0031 283.245 27.7089 C 281.861 30.4147 280.476 33.151 279.092 35.9178 C 277.707 38.6643 277.015 40.3936 277.015 41.1056 C 277.015 41.2277 277.076 41.2887 277.198 41.2887 C 277.728 41.2887 279.153 40.241 281.474 38.1455 C 283.815 36.0297 285.709 34.0665 287.155 32.2559 C 288.6 30.4452 289.863 28.6244 290.942 26.7934 C 292.041 24.9624 292.591 23.7621 292.591 23.1925 C 292.591 22.6228 292.469 22.1549 292.224 21.7887 C 292.001 21.4022 291.889 20.9953 291.889 20.5681 C 291.889 20.1205 292.184 19.6322 292.774 19.1033 C 293.385 18.554 294.159 18.2793 295.095 18.2793 C 297.009 18.2793 297.966 19.4288 297.966 21.7277 Z" stroke-linecap="round" />
</g>
<g transform="matrix(1 0 0 1 308.93 30.23)" id="wjnp2Lg6SIN5YjYrf1c1E"  >
<path style="stroke: none; stroke-width: 1; stroke-dasharray: none; stroke-linecap: butt; stroke-dashoffset: 0; stroke-linejoin: miter; stroke-miterlimit: 4; fill: rgb(255,255,255); fill-rule: nonzero; opacity: 1;" vector-effect="non-scaling-stroke"  transform=" translate(-306.93, -28.23)" d="M 317.663 11.7183 C 317.663 12.8779 317.123 14.0477 316.044 15.2277 C 314.965 16.3873 313.835 16.9671 312.654 16.9671 C 311.494 16.9671 310.913 16.3568 310.913 15.1362 C 310.913 13.9155 311.422 12.7559 312.44 11.6573 C 313.479 10.5383 314.619 9.97887 315.861 9.97887 C 316.411 9.97887 316.848 10.1315 317.174 10.4366 C 317.5 10.7418 317.663 11.169 317.663 11.7183 Z M 312.715 38.3592 C 312.715 38.9695 312.654 39.4069 312.532 39.6714 C 311.534 41.7058 309.946 43.3537 307.768 44.615 C 305.589 45.856 303.695 46.4765 302.087 46.4765 C 300.478 46.4765 299.094 45.9374 297.933 44.8592 C 296.773 43.7809 296.192 42.6823 296.192 41.5634 C 296.192 40.4444 296.752 38.8169 297.872 36.6808 C 298.992 34.5446 300.112 32.5712 301.232 30.7606 C 302.352 28.9499 302.911 27.9734 302.911 27.831 C 302.911 27.6682 302.698 27.3631 302.27 26.9155 C 301.863 26.4679 301.659 26.1424 301.659 25.939 C 301.659 25.7152 302.077 25.1557 302.911 24.2606 C 303.767 23.3451 304.795 22.4499 305.996 21.5751 C 307.218 20.68 308.144 20.2324 308.775 20.2324 C 309.427 20.2324 310.007 20.5172 310.516 21.0869 C 311.025 21.6565 311.28 22.1753 311.28 22.6432 C 311.28 23.1111 308.857 27.5156 304.011 35.8568 C 303.95 35.9789 303.777 36.2535 303.492 36.6808 C 303.227 37.0876 303.013 37.4335 302.85 37.7183 C 302.708 37.9828 302.535 38.3083 302.331 38.6948 C 301.924 39.5086 301.72 40.1901 301.72 40.7394 C 301.72 41.4311 302.189 41.777 303.125 41.777 C 304.062 41.777 305.029 41.4617 306.027 40.831 C 307.045 40.18 307.92 39.4679 308.653 38.6948 C 310.567 36.6401 311.656 35.6127 311.921 35.6127 C 312.451 35.6127 312.715 36.5282 312.715 38.3592 Z" stroke-linecap="round" />
</g>
<g transform="matrix(1 0 0 1 324.79 35.48)" id="2ull7-E1Bxf2MGYLjQylD"  >
<path style="stroke: none; stroke-width: 1; stroke-dasharray: none; stroke-linecap: butt; stroke-dashoffset: 0; stroke-linejoin: miter; stroke-miterlimit: 4; fill: rgb(255,255,255); fill-rule: nonzero; opacity: 1;" vector-effect="non-scaling-stroke"  transform=" translate(-322.79, -33.48)" d="M 334 22.3991 C 334 23.7418 333.45 24.9218 332.351 25.939 C 331.272 26.9562 330.04 27.4648 328.655 27.4648 C 328.207 27.4648 327.912 27.3631 327.77 27.1596 C 327.627 26.9358 327.556 26.651 327.556 26.3052 C 327.556 25.9593 327.597 25.6236 327.678 25.2981 C 326.945 25.5423 326.131 25.9186 325.235 26.4272 C 324.339 26.9358 323.239 27.6886 321.936 28.6854 C 320.633 29.6823 319.982 30.4249 319.982 30.9131 C 319.982 31.0759 320.216 31.1573 320.684 31.1573 C 321.173 31.1573 321.916 30.9945 322.914 30.669 C 323.911 30.3232 324.603 30.1502 324.99 30.1502 C 325.398 30.1502 325.662 30.1706 325.784 30.2113 C 326.049 30.3537 326.334 30.669 326.64 31.1573 C 326.945 31.6252 327.098 32.0016 327.098 32.2864 C 327.098 32.5509 326.833 32.9069 326.304 33.3545 C 325.774 33.802 325.174 34.1479 324.502 34.392 C 323.83 34.6158 323.382 34.7887 323.158 34.9108 C 318.862 37.3114 316.714 38.9593 316.714 39.8545 C 316.714 41.4413 318.068 42.2347 320.776 42.2347 C 322.506 42.2347 324.247 41.6854 325.998 40.5869 C 327.485 39.651 328.818 38.705 329.999 37.7488 C 331.2 36.7723 331.954 36.1721 332.259 35.9484 C 332.585 35.7246 332.829 35.6127 332.992 35.6127 C 333.522 35.6127 333.786 36.2027 333.786 37.3826 C 333.786 38.5626 333.715 39.3459 333.572 39.7324 C 333.43 40.0986 333.023 40.5563 332.351 41.1056 C 327.994 44.6455 323.87 46.4155 319.982 46.4155 C 317.905 46.4155 316.245 46.1307 315.003 45.561 C 312.723 44.5235 311.583 42.9366 311.583 40.8005 C 311.583 37.993 313.527 35.867 317.416 34.4225 C 316.642 34.0767 316.144 33.6393 315.92 33.1103 C 315.696 32.561 315.584 31.6964 315.584 30.5164 C 315.584 29.3161 316.133 28.0548 317.233 26.7324 C 318.353 25.3897 319.717 24.2911 321.325 23.4366 C 324.909 21.5039 328.106 20.5376 330.915 20.5376 C 331.587 20.5376 332.269 20.7003 332.962 21.0258 C 333.654 21.3513 334 21.8091 334 22.3991 Z" stroke-linecap="round" />
</g>
<g transform="matrix(1 0 0 1 122.7 30.5)" id="MMc7YKBfTMG8u6xl9kAaN"  >
<path style="stroke: none; stroke-width: 1; stroke-dasharray: none; stroke-linecap: butt; stroke-dashoffset: 0; stroke-linejoin: miter; stroke-miterlimit: 4; fill: rgb(255,255,255); fill-rule: nonzero; opacity: 1;" vector-effect="non-scaling-stroke"  transform=" translate(-204.82, -253.07)" d="M 155.074520385 235.273736875 L 155.074520385 235.273736875 Q 163.790340697 235.273736875 163.790340697 245.527643125 L 163.790340697 245.527643125 Q 163.790340697 253.315729062 158.63897351 266.3772525 L 158.63897351 266.3772525 Q 165.743465697 262.56865875 169.820614135 257.539361875 L 169.820614135 257.539361875 Q 173.604793822 252.851861875 175.92412976 246.430963437 L 175.92412976 246.430963437 Q 173.702450072 245.332330625 172.21319226 243.586725156 Q 170.723934447 241.841119687 170.723934447 239.839166562 Q 170.723934447 237.837213437 171.944637572 236.555475156 Q 173.165340697 235.273736875 175.020809447 235.273736875 Q 176.876278197 235.273736875 177.926082885 236.604303281 Q 178.975887572 237.934869687 178.975887572 240.30303375 Q 178.975887572 242.671197812 178.07256726 245.820611875 L 178.07256726 245.820611875 Q 179.83037976 246.723932187 181.78350476 247.13897125 L 181.78350476 247.13897125 L 181.344051635 248.286432187 Q 178.536434447 247.578424375 177.68194226 247.2366275 L 177.68194226 247.2366275 Q 175.264950072 254.536432187 169.442196166 260.481256406 Q 163.61944226 266.426080625 154.53741101 270.478815 L 154.53741101 270.478815 L 152.535457885 270.478815 Q 154.097957885 267.427057187 155.855770385 261.616510312 L 155.855770385 261.616510312 Q 159.273739135 250.434869687 159.273739135 244.184869687 L 159.273739135 244.184869687 Q 159.273739135 236.738580625 154.781551635 236.738580625 L 154.781551635 236.738580625 Q 152.77959851 236.738580625 151.168270385 237.751764219 Q 149.55694226 238.764947812 148.555965697 240.327447812 Q 147.554989135 241.889947812 146.895809447 243.916315 L 146.895809447 243.916315 Q 145.675106322 247.52959625 145.675106322 251.43584625 L 145.675106322 251.43584625 Q 145.675106322 254.75615875 146.407528197 257.197565 L 146.407528197 257.197565 Q 147.725887572 261.59209625 150.33819226 263.325494687 L 150.33819226 263.325494687 L 149.190731322 264.277643125 Q 146.602840697 262.104791562 145.394344604 258.540338437 Q 144.18584851 254.975885312 144.18584851 251.997369687 Q 144.18584851 249.018854062 144.552059447 246.894830625 Q 144.918270385 244.770807187 145.760555541 242.658990781 Q 146.602840697 240.547174375 147.823543822 238.923639219 Q 149.044246947 237.300104062 150.92412976 236.286920469 Q 152.804012572 235.273736875 155.074520385 235.273736875 Z M 175.582332885 237.617486875 Q 174.703426635 237.617486875 174.06866101 238.288873594 Q 173.433895385 238.960260312 173.433895385 240.119928281 Q 173.433895385 241.27959625 174.276180541 242.585748594 Q 175.118465697 243.891900937 176.436825072 244.868463437 L 176.436825072 244.868463437 Q 177.242489135 241.96319 177.242489135 240.449518125 L 177.242489135 240.449518125 Q 177.242489135 237.617486875 175.582332885 237.617486875 L 175.582332885 237.617486875 Z M 180.269832885 265.718072812 L 179.220028197 265.669244687 Q 179.366512572 268.476861875 183.004207885 268.476861875 L 183.004207885 268.476861875 Q 184.346981322 268.476861875 185.799618041 267.707818906 Q 187.25225476 266.938775937 188.155575072 265.88897125 L 188.155575072 265.88897125 L 189.20537976 266.572565 Q 187.179012572 269.966119687 182.735653197 270.722955625 L 182.735653197 270.722955625 Q 181.759090697 270.86944 180.855770385 270.86944 L 180.855770385 270.86944 Q 178.219051635 270.86944 176.461239135 269.123834531 Q 174.703426635 267.378229062 174.703426635 264.863580625 Q 174.703426635 262.348932187 176.241512572 260.212701719 Q 177.77959851 258.07647125 180.086727416 256.90459625 Q 182.393856322 255.73272125 184.639950072 255.73272125 Q 186.886043822 255.73272125 188.533993041 256.758111875 Q 190.18194226 257.7835025 190.218563354 259.516900937 Q 190.255184447 261.250299375 189.20537976 262.507623594 Q 188.155575072 263.764947812 186.544246947 264.4241275 L 186.544246947 264.4241275 Q 183.34600476 265.718072812 180.269832885 265.718072812 L 180.269832885 265.718072812 Z M 179.073543822 264.32647125 L 179.073543822 264.32647125 Q 181.78350476 264.228815 183.431453979 263.459772031 Q 185.079403197 262.690729062 185.726375854 261.701959531 Q 186.37334851 260.71319 186.37334851 259.626764219 Q 186.37334851 258.540338437 185.811825072 258.015436094 Q 185.250301635 257.49053375 184.61553601 257.49053375 L 184.61553601 257.49053375 Q 183.05303601 257.49053375 181.746883666 258.576959531 Q 180.440731322 259.663385312 179.757137572 261.213678281 Q 179.073543822 262.76397125 179.073543822 264.32647125 Z M 198.604793822 263.618463437 L 198.604793822 263.618463437 Q 203.707332885 255.73272125 207.76006726 255.73272125 L 207.76006726 255.73272125 Q 209.12725476 255.73272125 209.81084851 256.562799375 Q 210.49444226 257.3928775 210.49444226 258.66240875 Q 210.49444226 259.93194 209.359188354 263.05694 Q 208.223934447 266.18194 208.223934447 266.926568906 Q 208.223934447 267.671197812 208.590145385 267.671197812 L 208.590145385 267.671197812 Q 209.078426635 267.671197812 210.030575072 266.658014219 Q 210.98272351 265.644830625 211.715145385 264.52178375 L 211.715145385 264.52178375 L 212.74053601 265.49834625 Q 211.27569226 268.159479062 209.530086791 269.514459531 Q 207.784481322 270.86944 206.698055541 270.86944 Q 205.61162976 270.86944 205.001278197 270.149225156 Q 204.390926635 269.429010312 204.390926635 268.183893125 Q 204.390926635 266.938775937 205.379696166 264.118951719 Q 206.368465697 261.2991275 206.368465697 260.115045469 Q 206.368465697 258.930963437 205.562801635 258.930963437 L 205.562801635 258.930963437 Q 204.63506726 258.930963437 203.36553601 260.115045469 Q 202.09600476 261.2991275 200.899715697 263.008111875 L 200.899715697 263.008111875 Q 198.995418822 265.742486875 197.01787976 269.30694 L 197.01787976 269.30694 L 196.358700072 270.478815 L 192.91631726 270.478815 L 193.673153197 268.183893125 Q 195.797176635 261.836236875 195.797176635 260.652154844 Q 195.797176635 259.468072812 195.406551635 259.468072812 L 195.406551635 259.468072812 Q 194.698543822 259.468072812 193.721981322 261.152643125 L 193.721981322 261.152643125 Q 193.50225476 261.543268125 193.355770385 261.775201719 Q 193.20928601 262.007135312 193.026180541 262.336725156 Q 192.843075072 262.666315 192.794246947 262.739557187 L 192.794246947 262.739557187 L 191.15850476 261.78740875 Q 193.062801635 258.686822812 194.649715697 257.209772031 Q 196.23662976 255.73272125 197.89678601 255.73272125 L 197.89678601 255.73272125 Q 198.653621947 255.73272125 199.202938354 256.367486875 Q 199.75225476 257.0022525 199.75225476 257.905572812 Q 199.75225476 258.808893125 199.605770385 259.675592344 Q 199.45928601 260.542291562 199.300594604 261.116022031 Q 199.141903197 261.6897525 198.885555541 262.593072812 Q 198.629207885 263.496393125 198.604793822 263.618463437 Z M 214.01006726 264.668268125 L 214.01006726 264.668268125 Q 214.01006726 262.837213437 214.901180541 261.140436094 Q 215.792293822 259.44365875 217.208309447 258.27178375 L 217.208309447 258.27178375 Q 220.333309447 255.73272125 223.58037976 255.73272125 Q 226.827450072 255.73272125 228.902645385 257.466119687 Q 230.977840697 259.199518125 230.977840697 261.799615781 Q 230.977840697 264.399713437 229.549618041 266.47490875 Q 228.121395385 268.550104062 225.777645385 269.709772031 Q 223.433895385 270.86944 220.662899291 270.86944 Q 217.891903197 270.86944 215.950985229 269.123834531 Q 214.01006726 267.378229062 214.01006726 264.668268125 Z M 221.993465697 269.355768125 L 221.993465697 269.355768125 Q 223.116512572 269.355768125 224.105282104 268.62334625 Q 225.094051635 267.890924375 225.606746947 266.719049375 L 225.606746947 266.719049375 Q 226.60772351 264.472955625 226.60772351 262.0803775 Q 226.60772351 259.687799375 225.72881726 258.454889219 Q 224.84991101 257.221979062 223.238582885 257.221979062 Q 221.62725476 257.221979062 220.052547729 259.321588437 Q 218.477840697 261.421197812 218.477840697 264.668268125 L 218.477840697 264.668268125 Q 218.477840697 269.355768125 221.993465697 269.355768125 Z M 248.507137572 270.478815 L 248.507137572 270.478815 L 244.893856322 270.478815 L 245.35772351 268.867486875 Q 245.601864135 267.915338437 246.23662976 266.08428375 L 246.23662976 266.08428375 Q 247.652645385 262.104791562 247.652645385 259.883111875 L 247.652645385 259.883111875 Q 247.652645385 258.930963437 246.846981322 258.930963437 L 246.846981322 258.930963437 Q 245.84600476 258.930963437 244.491024291 260.115045469 Q 243.136043822 261.2991275 241.890926635 263.008111875 L 241.890926635 263.008111875 Q 239.815731322 265.864557187 237.789364135 269.30694 L 237.789364135 269.30694 L 237.105770385 270.478815 L 233.663387572 270.478815 Q 233.663387572 270.478815 234.42022351 268.183893125 L 234.42022351 268.183893125 Q 236.544246947 261.836236875 236.544246947 260.652154844 Q 236.544246947 259.468072812 236.153621947 259.468072812 L 236.153621947 259.468072812 Q 235.445614135 259.468072812 234.469051635 261.152643125 L 234.469051635 261.152643125 Q 234.249325072 261.543268125 234.102840697 261.775201719 Q 233.956356322 262.007135312 233.773250854 262.336725156 Q 233.590145385 262.666315 233.54131726 262.739557187 L 233.54131726 262.739557187 L 231.905575072 261.78740875 Q 233.809871947 258.686822812 235.39678601 257.209772031 Q 236.983700072 255.73272125 238.643856322 255.73272125 L 238.643856322 255.73272125 Q 239.40069226 255.73272125 239.950008666 256.367486875 Q 240.499325072 257.0022525 240.499325072 257.868951719 Q 240.499325072 258.735650937 240.401668822 259.407037656 Q 240.304012572 260.078424375 240.18194226 260.639947812 Q 240.059871947 261.20147125 239.840145385 261.98272125 Q 239.620418822 262.76397125 239.486141479 263.179010312 Q 239.351864135 263.594049375 239.132137572 264.302057187 Q 238.91241101 265.010065 238.863582885 265.132135312 L 238.863582885 265.132135312 Q 239.351864135 264.277643125 240.450496947 262.56865875 Q 241.54912976 260.859674375 241.903133666 260.408014219 Q 242.257137572 259.956354062 242.843075072 259.236139219 Q 243.429012572 258.515924375 243.880672729 258.100885312 Q 244.332332885 257.68584625 244.96709851 257.173150937 Q 245.601864135 256.660455625 246.163387572 256.391900937 L 246.163387572 256.391900937 Q 247.530575072 255.73272125 248.934383666 255.73272125 Q 250.33819226 255.73272125 251.070614135 256.526178281 Q 251.80303601 257.319635312 251.80303601 258.381647031 Q 251.80303601 259.44365875 251.473446166 260.591119687 Q 251.143856322 261.738580625 250.557918822 263.264459531 Q 249.971981322 264.790338437 249.801082885 265.327447812 L 249.801082885 265.327447812 Q 252.144832885 261.518854062 253.389950072 259.956354062 L 253.389950072 259.956354062 Q 256.78350476 255.73272125 260.10381726 255.73272125 L 260.10381726 255.73272125 Q 261.739559447 255.73272125 262.44756726 256.51397125 Q 263.155575072 257.29522125 263.155575072 258.637994687 Q 263.155575072 259.980768125 262.008114135 263.093561094 Q 260.860653197 266.206354062 260.860653197 266.914361875 Q 260.860653197 267.622369687 261.300106322 267.622369687 L 261.300106322 267.622369687 Q 262.276668822 267.622369687 264.40069226 264.52178375 L 264.40069226 264.52178375 L 265.450496947 265.49834625 Q 264.01006726 268.061822812 262.276668822 269.465631406 Q 260.543270385 270.86944 259.310360229 270.86944 Q 258.077450072 270.86944 257.589168822 270.063775937 Q 257.100887572 269.258111875 257.100887572 268.147272031 Q 257.100887572 267.036432187 258.077450072 264.216607969 Q 259.054012572 261.39678375 259.054012572 259.883111875 L 259.054012572 259.883111875 Q 259.054012572 258.930963437 258.199520385 258.930963437 L 258.199520385 258.930963437 Q 255.758114135 258.930963437 251.143856322 266.08428375 L 251.143856322 266.08428375 Q 249.26397351 268.989557187 248.507137572 270.478815 Z" stroke-linecap="round" />
</g>
<g transform="matrix(0.09 0 0 0.09 35.64 28.4)" id="3PU8HtpaSqvXdaTKFlVgO"  >
<path style="stroke: none; stroke-width: 1; stroke-dasharray: none; stroke-linecap: butt; stroke-dashoffset: 0; stroke-linejoin: miter; stroke-miterlimit: 4; fill: rgb(255,255,255); fill-rule: nonzero; opacity: 1;" vector-effect="non-scaling-stroke"  transform=" translate(-383.31, -305.95)" d="M 487.958 40.634 L 476.057 52.536 C 469.48400000000004 59.109 458.827 59.109 452.254 52.536 L 452.254 52.536 C 445.68100000000004 45.963 445.68100000000004 35.306 452.254 28.733 L 464.156 16.832 C 470.729 10.259 481.386 10.259 487.959 16.832 L 487.959 16.832 C 494.53 23.404 494.53 34.061 487.958 40.634 z M 570.931 100.477 L 474.838 196.57 C 468.26500000000004 203.143 457.608 203.143 451.035 196.57 L 451.035 196.57 C 444.46200000000005 189.99699999999999 444.46200000000005 179.34 451.035 172.767 L 511.76000000000005 112.042 C 518.3330000000001 105.469 518.3330000000001 94.812 511.76000000000005 88.239 L 511.76000000000005 88.239 C 505.18700000000007 81.666 494.53000000000003 81.666 487.95700000000005 88.239 L 470.9680000000001 105.22800000000001 L 470.9680000000001 105.22800000000001 L 427.2320000000001 148.964 C 420.6590000000001 155.537 410.00200000000007 155.537 403.4290000000001 148.964 L 403.4290000000001 148.964 C 396.8560000000001 142.391 396.8560000000001 131.734 403.4290000000001 125.161 L 416.5490000000001 112.041 C 423.12200000000007 105.46799999999999 423.12200000000007 94.81099999999999 416.5490000000001 88.238 L 416.5490000000001 88.238 C 409.9760000000001 81.66499999999999 399.3190000000001 81.66499999999999 392.7460000000001 88.238 L 285.634 195.352 L 404.648 195.352 L 404.648 528.591 L 285.634 528.591 L 309.437 504.788 C 316.01 498.21500000000003 316.01 487.558 309.437 480.985 L 309.437 480.985 C 302.86400000000003 474.41200000000003 292.207 474.41200000000003 285.634 480.985 L 166.62 600 L 476.056 600 L 476.056 338.169 L 511.76 302.465 C 518.333 295.892 518.333 285.23499999999996 511.76 278.662 L 511.76 278.662 C 505.187 272.089 494.531 272.089 487.95799999999997 278.661 L 475.99699999999996 290.622 C 469.424 297.195 458.76699999999994 297.195 452.19399999999996 290.622 L 452.19399999999996 290.622 C 445.621 284.04900000000004 445.621 273.392 452.19399999999996 266.819 L 476.05499999999995 242.95800000000003 L 595.07 123.944 C 601.8340000000001 117.18 601.6370000000001 106.092 594.481 99.57900000000001 C 587.778 93.479 577.339 94.069 570.931 100.477 z" stroke-linecap="round" />
</g>
<g transform="matrix(0.09 0 0 0.09 19.57 27.86)" id="4hRS8W9DmMhjfco_PvyVn"  >
<path style="stroke: none; stroke-width: 1; stroke-dasharray: none; stroke-linecap: butt; stroke-dashoffset: 0; stroke-linejoin: miter; stroke-miterlimit: 4; fill: rgb(174,174,174); fill-rule: nonzero; opacity: 1;" vector-effect="non-scaling-stroke"  transform=" translate(-204.79, -300)" d="M 380.845 4.93 L 242.571 143.203 C 235.998 149.776 225.341 149.776 218.768 143.203 L 218.768 143.203 C 212.195 136.63 212.195 125.973 218.768 119.4 L 238.028 100.14 C 244.601 93.56700000000001 244.601 82.91 238.028 76.337 L 238.028 76.337 C 231.45499999999998 69.76400000000001 220.798 69.76400000000001 214.225 76.337 L 166.619 123.94300000000001 L 0 123.94300000000001 L 0 600 L 119.014 600 L 190.422 528.591 L 71.409 528.591 L 71.409 195.352 L 238.02800000000002 195.352 L 404.648 28.732 C 411.221 22.159 411.221 11.501999999999999 404.648 4.9289999999999985 L 404.648 4.9289999999999985 C 398.075 -1.643 387.418 -1.643 380.845 4.93 z" stroke-linecap="round" />
</g>
</svg>